<?xml version="1.0" encoding="utf-8"?>
<!-- Generator: Adobe Illustrator 24.0.0, SVG Export Plug-In . SVG Version: 6.00 Build 0)  -->
<svg version="1.1" id="Capa_1" xmlns="http://www.w3.org/2000/svg" xmlns:xlink="http://www.w3.org/1999/xlink" x="0px" y="0px"
	 viewBox="0 0 140.7 140.6" style="enable-background:new 0 0 140.7 140.6;" xml:space="preserve">
<style type="text/css">
	.st0{fill:#FFFFFF;}
</style>
<path class="st0" d="M139.9,66c0,2.9,0,5.8,0,8.7c-0.2,1.7-0.4,3.4-0.6,5.1c-2,13.9-7.6,26.2-16.9,36.6c-10.7,12-24,19.5-39.9,22.4
	c-2.6,0.5-5.2,0.7-7.8,1.1c-2.9,0-5.8,0-8.7,0c-0.4-0.1-0.8-0.2-1.2-0.2c-2.9-0.4-5.8-0.6-8.6-1.2C21,131.1-3,97.9,1.3,62.2
	c2.3-19,11-34.6,26-46.5C43.2,3.2,61.4-1.4,81.5,1.6c13.3,2,25,7.7,35,16.7c12,10.8,19.5,24.1,22.3,40
	C139.3,60.8,139.6,63.4,139.9,66z M65.4,47.8c0,7.1,0.1,14.1,0,21.2c0,2.3,0.7,4.2,2.4,5.8c3.2,3,6.2,6.2,9.3,9.3
	c3.9,3.9,7.8,7.8,11.7,11.7c1.5,1.5,3.2,2.1,5.3,1.5c3.7-1.1,4.7-5.6,1.8-8.4c-6.4-6.5-12.9-13-19.4-19.4c-0.9-0.9-1.2-1.8-1.2-3.1
	c0-10,0-19.9,0-29.9c0-3.8,0-7.5,0-11.3c0-2.2-1.3-4-3.3-4.6c-3.3-1.1-6.5,1.2-6.5,4.8C65.4,32.8,65.4,40.3,65.4,47.8z"/>
</svg>
