<?xml version="1.0" encoding="utf-8"?>
<!-- Generator: Adobe Illustrator 24.0.0, SVG Export Plug-In . SVG Version: 6.00 Build 0)  -->
<svg version="1.1" id="Capa_1" xmlns="http://www.w3.org/2000/svg" xmlns:xlink="http://www.w3.org/1999/xlink" x="0px" y="0px"
	 viewBox="0 0 140.7 143" style="enable-background:new 0 0 140.7 143;" xml:space="preserve">
<style type="text/css">
	.st0{fill:#FFFFFF;}
</style>
<path class="st0" d="M42.6,65.1c0,0.5,0,1.1,0,1.6c0,4.8,0,9.6,0,14.4c0,2.1-1,3.6-2.7,4.2c-1.8,0.6-3.3,0.1-4.8-1.5
	C24.3,71.7,13.5,59.7,2.7,47.6c-2.6-2.8-2.6-4.7,0-7.6c8.2-9.1,16.3-18.1,24.4-27.1c2.8-3,5.6-6.2,8.4-9.2c2.2-2.4,6-1.4,6.9,1.7
	c0.2,0.6,0.2,1.3,0.2,2c0,4.8,0,9.6,0,14.4c0,0.5,0.1,0.9,0.1,1.4C73.4,24,99,35.6,118.3,59.4c19.4,23.9,25.4,51.3,19.6,81.3
	C125.9,89.1,78.5,63.5,42.6,65.1z"/>
</svg>
